# xmcd
#
# Track frame offsets:
#	150
#	25483
#	57693
#	84652
#	124732
#	158906
#	182628
#	209569
#	251754
#
# Disc length: 3707 seconds
# Revision: 0
# Processed by: cddbd v1.5.2PL0 Copyright (c) Steve Scherf et al.
# Submitted via: dBpowerAMP V12.0
#
DISCID=840e7909
DTITLE=Hale Dwoskin - The Inner Circle Retreat 02 CD 09
DYEAR=2007
DGENRE=Speech
TTITLE0=Asking Why Questions Is Not Wise
TTITLE1=Release on Trouble
TTITLE2=Wanting to Hurt Others
TTITLE3=Wanting to Control the Future
TTITLE4=Health Insurance
TTITLE5=The Boxes You Have Been Living In
TTITLE6=Release on Boxes You Have Been Living In
TTITLE7=Looking into the Now
TTITLE8=Spiritual Experiences
EXTD=
EXTT0=
EXTT1=
EXTT2=
EXTT3=
EXTT4=
EXTT5=
EXTT6=
EXTT7=
EXTT8=
PLAYORDER=
